<svg width="160" height="250" viewBox="0 0 160 250" fill="none" xmlns="http://www.w3.org/2000/svg">
<rect width="160" height="250" rx="30" fill="#C703B3"/>
<path d="M80 97.5534C83.6524 97.5534 87.132 98.2851 90.3214 99.5846C90.7223 98.4469 90.9513 97.2273 90.9513 95.9521C90.9513 89.9038 86.0491 85.0008 80.0003 85.0008C73.952 85.0008 69.0489 89.9038 69.0489 95.9521C69.0489 97.2273 69.2782 98.4456 69.6789 99.5846C72.868 98.2854 76.3478 97.5534 80 97.5534Z" fill="#DDAD01"/>
<path d="M105.416 114.679C106.715 117.868 107.446 121.349 107.446 125C107.446 128.653 106.715 132.132 105.416 135.322C106.554 135.723 107.773 135.952 109.049 135.952C115.096 135.952 120 131.049 120 125C120 118.952 115.096 114.049 109.049 114.049C107.772 114.049 106.554 114.279 105.416 114.679Z" fill="#DDAD01"/>
<path d="M80 164.999C86.0488 164.999 90.9511 160.097 90.9511 154.047C90.9511 152.773 90.722 151.554 90.3211 150.415C87.1317 151.715 83.6522 152.447 79.9998 152.447C76.3478 152.447 72.8678 151.716 69.6784 150.417C69.2777 151.555 69.0484 152.774 69.0484 154.05C69.0484 160.097 73.9517 164.999 80 164.999Z" fill="#DDAD01"/>
<path d="M50.9513 135.952C52.2265 135.952 53.4448 135.723 54.5839 135.322C53.2846 132.132 52.5529 128.653 52.5529 125C52.5529 121.349 53.2846 117.868 54.5839 114.679C53.4461 114.279 52.2265 114.049 50.9513 114.049C44.903 114.049 40 118.952 40 125C40.0013 131.049 44.903 135.952 50.9513 135.952Z" fill="#DDAD01"/>
<path d="M54.7158 114.321C57.4974 107.761 62.7589 102.498 69.3186 99.7179C68.7971 98.635 68.1003 97.615 67.2022 96.718C62.9263 92.4415 55.9918 92.4415 51.7159 96.718C47.4394 100.994 47.4394 107.929 51.7159 112.205C52.6145 113.102 53.633 113.799 54.7158 114.321Z" fill="#DDAD01"/>
<path d="M105.283 114.321C106.366 113.799 107.387 113.102 108.284 112.205C112.56 107.929 112.56 100.994 108.284 96.718C104.007 92.4415 97.0734 92.4415 92.798 96.718C91.9002 97.6153 91.2006 98.635 90.6804 99.7179C97.2393 102.498 102.502 107.761 105.283 114.321Z" fill="#DDAD01"/>
<path d="M51.7159 137.796C47.4394 142.073 47.4394 149.008 51.7159 153.283C55.9918 157.56 62.9266 157.56 67.2022 153.283C68.1003 152.386 68.7984 151.367 69.3186 150.284C62.7589 147.502 57.4961 142.24 54.7158 135.681C53.633 136.201 52.6145 136.898 51.7159 137.796Z" fill="#DDAD01"/>
<path d="M108.284 153.285C112.56 149.008 112.56 142.074 108.284 137.799C107.387 136.901 106.366 136.201 105.283 135.681C102.502 142.241 97.2409 147.504 90.6804 150.284C91.2032 151.367 91.9002 152.388 92.798 153.285C97.0734 157.561 104.007 157.561 108.284 153.285Z" fill="#DDAD01"/>
<path d="M70.1999 147.673C70.4305 147.773 70.6683 147.858 70.9028 147.952C73.7214 149.07 76.785 149.702 80 149.702C83.2158 149.702 86.2795 149.07 89.0964 147.952C89.3296 147.858 89.568 147.773 89.7986 147.673C95.5588 145.181 100.177 140.56 102.671 134.801C102.772 134.57 102.856 134.333 102.95 134.097C104.069 131.28 104.702 128.216 104.702 125C104.702 121.786 104.069 118.722 102.951 115.905C102.857 115.67 102.773 115.433 102.672 115.202C100.18 109.442 95.5588 104.823 89.8001 102.329C89.5695 102.229 89.3322 102.144 89.0964 102.051C86.2792 100.932 83.2156 100.298 80 100.298C76.785 100.298 73.7211 100.932 70.9041 102.049C70.6696 102.143 70.4318 102.228 70.2012 102.328C64.4417 104.822 59.8221 109.441 57.3286 115.201C57.2287 115.431 57.1436 115.669 57.0499 115.904C55.9315 118.722 55.2974 121.786 55.2974 125C55.2974 128.216 55.9313 131.28 57.0483 134.097C57.1423 134.33 57.2267 134.569 57.3271 134.8C59.8208 140.56 64.4404 145.181 70.1999 147.673Z" fill="#DDAD01"/>
</svg>
