<svg width="160" height="250" viewBox="0 0 160 250" fill="none" xmlns="http://www.w3.org/2000/svg">
<rect width="160" height="250" rx="30" fill="#04789C"/>
<g clip-path="url(#clip0)">
<path d="M118.053 130.563C117.235 130.359 116.417 130.563 115.7 131.075C113.041 133.325 109.972 135.167 106.596 136.394C103.425 137.622 99.9465 138.236 96.2638 138.236C87.9777 138.236 80.4077 134.86 74.9859 129.438C69.5641 124.016 66.1883 116.446 66.1883 108.16C66.1883 104.682 66.802 101.306 67.825 98.237C68.9503 94.9635 70.5871 91.9969 72.7353 89.4394C73.656 88.3141 73.4514 86.6774 72.3261 85.7567C71.61 85.2452 70.7917 85.0406 69.9733 85.2452C61.278 87.5981 53.7079 92.8153 48.2861 99.7715C43.0689 106.625 40 115.116 40 124.323C40 135.473 44.5011 145.601 51.8666 152.966C59.232 160.332 69.2572 164.833 80.51 164.833C89.9214 164.833 98.6167 161.559 105.573 156.138C112.631 150.614 117.746 142.737 119.895 133.734C120.304 132.302 119.485 130.87 118.053 130.563Z" fill="#DDAD01"/>
</g>
<defs>
<clipPath id="clip0">
<rect width="80" height="80" fill="white" transform="translate(40 85)"/>
</clipPath>
</defs>
</svg>
