<svg width="160" height="250" viewBox="0 0 160 250" fill="none" xmlns="http://www.w3.org/2000/svg">
<rect width="160" height="250" rx="30" fill="#A00000"/>
<g clip-path="url(#clip0)">
<path d="M80 104.713C68.8139 104.713 59.7134 113.814 59.7134 125C59.7134 136.186 68.8139 145.286 80 145.286C91.186 145.286 100.287 136.186 100.287 125C100.287 113.814 91.186 104.713 80 104.713Z" fill="#DDAD01"/>
<path d="M110.223 125L117.652 115.017C118.159 114.334 118.305 113.448 118.042 112.639C117.779 111.83 117.141 111.199 116.329 110.945L104.451 107.235L104.593 94.792C104.602 93.9415 104.199 93.1391 103.511 92.6391C102.823 92.1392 101.935 92.0036 101.129 92.2758L89.3392 96.256L82.1403 86.1059C81.6482 85.4121 80.8505 85 80 85C79.1494 85 78.3517 85.4121 77.8597 86.1059L70.6605 96.2562L58.8701 92.276C58.0642 92.0039 57.1764 92.1393 56.4884 92.6393C55.8004 93.1392 55.3971 93.9417 55.4069 94.7922L55.549 107.235L43.6709 110.946C42.859 111.199 42.2205 111.831 41.9578 112.639C41.6949 113.448 41.8404 114.334 42.3482 115.017L49.7771 125L42.3482 134.984C41.8404 135.666 41.695 136.552 41.9578 137.361C42.2205 138.17 42.8592 138.801 43.6709 139.055L55.549 142.765L55.4069 155.208C55.3971 156.059 55.8004 156.861 56.4884 157.361C57.1765 157.861 58.064 157.996 58.8701 157.724L70.6605 153.744L77.8597 163.894C78.3517 164.588 79.1494 165 80 165C80.8505 165 81.6482 164.588 82.1403 163.894L89.3394 153.744L101.13 157.724C101.935 157.996 102.823 157.861 103.511 157.361C104.199 156.861 104.603 156.059 104.593 155.208L104.451 142.765L116.329 139.055C117.141 138.801 117.779 138.17 118.042 137.361C118.305 136.552 118.16 135.666 117.652 134.984L110.223 125ZM80 150.534C65.9202 150.534 54.4655 139.08 54.4655 125C54.4655 110.92 65.9202 99.4655 80 99.4655C94.0797 99.4655 105.534 110.92 105.534 125C105.534 139.08 94.0797 150.534 80 150.534Z" fill="#DDAD01"/>
</g>
<defs>
<clipPath id="clip0">
<rect width="80" height="80" fill="white" transform="translate(40 85)"/>
</clipPath>
</defs>
</svg>
