<svg width="160" height="250" viewBox="0 0 160 250" fill="none" xmlns="http://www.w3.org/2000/svg">
<rect width="160" height="250" rx="30" fill="#DDAD01"/>
<g clip-path="url(#clip0)">
<path d="M80.0256 165C64.6753 165 52.1875 152.443 52.1875 137.007C52.1875 130.281 54.4788 125.707 57.1326 120.412C58.6053 117.471 60.1288 114.431 61.5356 110.552L62.9993 106.516C65.1575 107.044 64.4263 106.865 66.5839 107.394L66.0162 111.65C65.5518 115.128 66.1865 119.072 67.757 122.472C68.4229 123.914 69.2267 125.194 70.119 126.258C69.8096 120.611 70.3882 115.168 71.8494 110.018C73.3813 104.619 75.8392 99.6417 79.1553 95.2228C83.2825 89.7241 88.0225 86.1328 90.2203 85.8374L96.4496 85L92.2577 89.6838C90.3534 91.8109 89.3048 94.5569 89.3048 97.4158C89.3048 102.942 92.6947 106.863 96.6193 111.404C99.1357 114.315 101.987 117.615 104.147 121.668C106.648 126.36 107.863 131.378 107.863 137.007C107.863 152.443 95.3754 165 80.0256 165Z" fill="#DD5001"/>
</g>
<defs>
<clipPath id="clip0">
<rect width="80" height="80" fill="white" transform="translate(40 85)"/>
</clipPath>
</defs>
</svg>
